<svg width="32" height="32" viewBox="0 0 32 32" fill="none" xmlns="http://www.w3.org/2000/svg">
<path d="M16 26C15.7348 26 15.4804 25.8946 15.2929 25.7071C15.1054 25.5196 15 25.2652 15 25L15 21C15 20.7348 15.1054 20.4804 15.2929 20.2929C15.4804 20.1054 15.7348 20 16 20C16.2652 20 16.5196 20.1054 16.7071 20.2929C16.8946 20.4804 17 20.7348 17 21L17 25C17 25.2652 16.8946 25.5196 16.7071 25.7071C16.5196 25.8946 16.2652 26 16 26V26ZM8 10C8 7.87827 8.84285 5.84344 10.3431 4.34315C11.8434 2.84286 13.8783 2 16 2C18.1217 2 20.1566 2.84285 21.6569 4.34315C23.1571 5.84344 24 7.87827 24 10L24 22C24 24.1217 23.1571 26.1566 21.6569 27.6569C20.1566 29.1571 18.1217 30 16 30C13.8783 30 11.8434 29.1571 10.3431 27.6569C8.84285 26.1566 8 24.1217 8 22L8 10ZM16 32C18.6522 32 21.1957 30.9464 23.0711 29.0711C24.9464 27.1957 26 24.6522 26 22L26 10C26 7.34784 24.9464 4.8043 23.0711 2.92893C21.1957 1.05357 18.6522 6.42368e-07 16 8.74228e-07C13.3478 1.10609e-06 10.8043 1.05357 8.92893 2.92893C7.05357 4.8043 6 7.34784 6 10L6 22C6 24.6522 7.05357 27.1957 8.92893 29.0711C10.8043 30.9464 13.3478 32 16 32V32Z" fill="white"/>
</svg>
