<svg width="233" height="48" viewBox="0 0 233 48" fill="none" xmlns="http://www.w3.org/2000/svg">
<path d="M5.19131 14.1954L0.5 9.88564V9.60526V2C0.5 1.17157 1.17157 0.5 2 0.5H97H116.5H151H171H231C231.828 0.5 232.5 1.17157 232.5 2V28.538C232.5 28.9085 232.363 29.2658 232.115 29.5412L228.224 33.8664C227.94 34.1826 227.534 34.3632 227.109 34.3632H215.892C213.857 34.3632 212.675 36.6642 213.859 38.3186L215.495 40.6035C215.965 41.2592 216.721 41.6481 217.528 41.6481H231C231.828 41.6481 232.5 42.3197 232.5 43.1481V46C232.5 46.8284 231.828 47.5 231 47.5H2C1.17157 47.5 0.5 46.8284 0.5 46V43.7193C0.5 43.3467 0.638667 42.9875 0.888999 42.7115L5.35167 37.7919C5.76889 37.332 6 36.7332 6 36.1122V16.0364C6 15.3366 5.70667 14.6688 5.19131 14.1954Z" fill="#5C89E1" fill-opacity="0.3" stroke="#5C89E1"/>
</svg>
